<?xml version="1.0" encoding="utf-8"?>
<!-- Generator: Adobe Illustrator 25.4.1, SVG Export Plug-In . SVG Version: 6.00 Build 0)  -->
<svg version="1.1" xmlns="http://www.w3.org/2000/svg" xmlns:xlink="http://www.w3.org/1999/xlink" x="0px" y="0px"
	 viewBox="0 0 64 22" style="enable-background:new 0 0 64 22;" xml:space="preserve">
<style type="text/css">
	.st0{fill:#FFCC00;}
	.st1{fill:#FFFFFF;}
</style>
<g id="BASE">
	<rect width="64" height="22"/>
</g>
<g id="LOGO">
	<g>
		<path class="st0" d="M11.64,13.95v1.49h1.32l-2.27,2.74l-2.27-2.74h1.32v-1.52c-1.18-0.41-2.02-1.52-2.02-2.84c0-1.66,1.35-3,3-3
			c0.99,0,1.88,0.48,2.42,1.23h4.51c-0.79-3.09-3.59-5.38-6.93-5.38c-3.95,0-7.15,3.2-7.15,7.15c0,3.95,3.2,7.15,7.15,7.15
			c3.34,0,6.14-2.28,6.93-5.38h-4.51C12.78,13.37,12.25,13.76,11.64,13.95"/>
		<g>
			<path class="st1" d="M23.9,13.3c-0.2-0.27-0.46-0.49-0.77-0.66c-0.31-0.16-0.68-0.24-1.1-0.24c-0.37,0-0.71,0.07-1.02,0.2
				c-0.31,0.13-0.57,0.32-0.79,0.55c-0.22,0.23-0.39,0.51-0.51,0.82c-0.12,0.31-0.18,0.66-0.18,1.02c0,0.38,0.06,0.72,0.18,1.04
				c0.12,0.32,0.28,0.59,0.5,0.82c0.22,0.23,0.48,0.41,0.79,0.53c0.31,0.12,0.66,0.18,1.04,0.18c0.55,0,1.03-0.13,1.42-0.38
				c0.4-0.26,0.69-0.68,0.88-1.27l0.05-0.15h-1.37l-0.02,0.08c-0.03,0.12-0.14,0.24-0.3,0.35c-0.17,0.12-0.37,0.18-0.61,0.18
				c-0.33,0-0.59-0.08-0.76-0.25c-0.15-0.15-0.25-0.39-0.28-0.72h3.37l0.01-0.1c0.02-0.37-0.01-0.74-0.09-1.08
				C24.25,13.88,24.1,13.57,23.9,13.3 M22.89,14.37h-1.83c0.01-0.05,0.02-0.11,0.04-0.17c0.03-0.1,0.08-0.2,0.15-0.29
				c0.07-0.09,0.17-0.17,0.29-0.23c0.12-0.06,0.28-0.09,0.46-0.09c0.28,0,0.49,0.07,0.62,0.22C22.74,13.94,22.83,14.13,22.89,14.37"
				/>
			<path class="st1" d="M28.49,15.52c-0.04,0.27-0.13,0.48-0.28,0.63c-0.15,0.15-0.35,0.22-0.63,0.22c-0.18,0-0.33-0.04-0.45-0.12
				c-0.12-0.08-0.22-0.19-0.3-0.31c-0.08-0.13-0.13-0.28-0.16-0.44c-0.03-0.17-0.05-0.33-0.05-0.49c0-0.17,0.02-0.34,0.05-0.51
				c0.03-0.17,0.09-0.32,0.17-0.46c0.08-0.13,0.18-0.24,0.31-0.33c0.12-0.08,0.27-0.12,0.45-0.12c0.5,0,0.77,0.23,0.84,0.71
				l0.02,0.09h1.48l-0.01-0.12c-0.02-0.32-0.1-0.6-0.23-0.83c-0.13-0.23-0.31-0.43-0.53-0.59c-0.21-0.16-0.46-0.27-0.73-0.35
				c-0.27-0.07-0.55-0.11-0.83-0.11c-0.39,0-0.75,0.07-1.06,0.2c-0.31,0.13-0.58,0.32-0.79,0.56c-0.22,0.24-0.38,0.52-0.49,0.85
				c-0.11,0.32-0.16,0.67-0.16,1.05c0,0.36,0.06,0.7,0.18,1.01c0.12,0.31,0.29,0.57,0.51,0.8c0.22,0.22,0.48,0.4,0.79,0.52
				c0.31,0.12,0.65,0.18,1.01,0.18c0.65,0,1.19-0.17,1.61-0.52c0.42-0.34,0.68-0.85,0.77-1.5l0.02-0.13H28.5L28.49,15.52z"/>
			<path class="st1" d="M34.93,13.11c-0.22-0.23-0.49-0.4-0.81-0.53c-0.31-0.12-0.66-0.18-1.04-0.18s-0.73,0.06-1.04,0.18
				c-0.31,0.12-0.58,0.3-0.8,0.53c-0.22,0.23-0.4,0.5-0.52,0.82c-0.12,0.32-0.18,0.67-0.18,1.06c0,0.39,0.06,0.74,0.18,1.06
				c0.12,0.32,0.29,0.59,0.52,0.82c0.22,0.23,0.49,0.4,0.8,0.52c0.31,0.12,0.66,0.18,1.04,0.18c0.38,0,0.73-0.06,1.04-0.18
				c0.31-0.12,0.58-0.3,0.81-0.52c0.22-0.23,0.4-0.5,0.52-0.82c0.12-0.31,0.18-0.67,0.18-1.06c0-0.39-0.06-0.74-0.18-1.06
				C35.33,13.61,35.15,13.33,34.93,13.11 M32.06,14.99c0-0.18,0.02-0.36,0.05-0.53c0.03-0.17,0.09-0.32,0.17-0.44
				c0.08-0.12,0.18-0.23,0.31-0.3c0.13-0.08,0.29-0.12,0.49-0.12c0.2,0,0.36,0.04,0.49,0.12c0.13,0.08,0.24,0.18,0.32,0.3
				c0.08,0.13,0.14,0.28,0.17,0.44c0.03,0.17,0.05,0.35,0.05,0.53c0,0.18-0.02,0.36-0.05,0.53c-0.03,0.16-0.09,0.31-0.17,0.44
				c-0.08,0.13-0.18,0.23-0.31,0.3c-0.13,0.07-0.3,0.11-0.49,0.11c-0.2,0-0.36-0.04-0.49-0.11c-0.13-0.07-0.23-0.18-0.31-0.3
				c-0.08-0.13-0.14-0.28-0.17-0.44C32.07,15.35,32.06,15.17,32.06,14.99"/>
			<path class="st1" d="M40.59,12.97c-0.14-0.18-0.33-0.32-0.57-0.43c-0.23-0.1-0.53-0.15-0.89-0.15c-0.29,0-0.57,0.07-0.85,0.2
				c-0.19,0.09-0.36,0.22-0.5,0.39v-0.46h-1.45v4.92h1.51v-2.57c0-0.45,0.07-0.78,0.21-0.96c0.14-0.18,0.36-0.27,0.67-0.27
				c0.27,0,0.45,0.08,0.55,0.23c0.11,0.17,0.16,0.44,0.16,0.81v2.76h1.51v-3c0-0.3-0.03-0.57-0.08-0.82
				C40.83,13.37,40.73,13.15,40.59,12.97"/>
			<path class="st1" d="M46.05,13.11c-0.22-0.23-0.49-0.4-0.81-0.53c-0.31-0.12-0.66-0.18-1.04-0.18c-0.38,0-0.73,0.06-1.04,0.18
				c-0.31,0.12-0.58,0.3-0.8,0.53c-0.22,0.23-0.4,0.5-0.52,0.82v0c-0.12,0.32-0.18,0.67-0.18,1.06c0,0.39,0.06,0.74,0.18,1.06
				c0.12,0.32,0.29,0.59,0.52,0.82c0.22,0.23,0.49,0.4,0.8,0.52c0.31,0.12,0.66,0.18,1.04,0.18c0.38,0,0.73-0.06,1.04-0.18
				c0.31-0.12,0.58-0.3,0.81-0.52c0.22-0.23,0.4-0.5,0.52-0.82c0.12-0.31,0.18-0.67,0.18-1.06c0-0.39-0.06-0.74-0.18-1.06
				C46.45,13.61,46.28,13.33,46.05,13.11 M45.23,14.99c0,0.18-0.02,0.36-0.05,0.53c-0.03,0.16-0.09,0.31-0.17,0.44
				c-0.08,0.13-0.18,0.23-0.31,0.3c-0.13,0.07-0.3,0.11-0.49,0.11s-0.36-0.04-0.49-0.11c-0.13-0.07-0.23-0.18-0.31-0.3
				c-0.08-0.13-0.14-0.28-0.17-0.44c-0.03-0.17-0.05-0.35-0.05-0.53c0-0.18,0.02-0.36,0.05-0.53c0.03-0.17,0.09-0.32,0.17-0.44
				c0.08-0.12,0.18-0.23,0.31-0.3c0.13-0.08,0.29-0.12,0.49-0.12s0.36,0.04,0.49,0.12c0.13,0.08,0.24,0.18,0.32,0.3
				c0.08,0.13,0.14,0.28,0.17,0.44C45.22,14.63,45.23,14.81,45.23,14.99"/>
			<path class="st1" d="M54.37,12.81c-0.16-0.14-0.36-0.25-0.59-0.31c-0.22-0.06-0.46-0.09-0.72-0.09c-0.35,0-0.65,0.09-0.91,0.25
				c-0.19,0.13-0.35,0.27-0.49,0.43c-0.13-0.23-0.31-0.4-0.53-0.5c-0.26-0.12-0.55-0.18-0.86-0.18c-0.33,0-0.62,0.07-0.88,0.21
				c-0.17,0.09-0.33,0.22-0.46,0.37v-0.45h-1.44v4.92h1.51v-2.84c0-0.21,0.03-0.38,0.09-0.51c0.06-0.13,0.13-0.22,0.21-0.29
				c0.08-0.07,0.16-0.11,0.25-0.13c0.09-0.02,0.16-0.04,0.21-0.04c0.18,0,0.32,0.03,0.41,0.09c0.09,0.06,0.15,0.13,0.18,0.22
				c0.04,0.1,0.06,0.22,0.07,0.34c0.01,0.13,0.01,0.27,0.01,0.41v2.75h1.51v-2.73c0-0.14,0.01-0.28,0.03-0.41
				c0.02-0.13,0.06-0.24,0.11-0.34c0.05-0.1,0.13-0.17,0.22-0.23c0.09-0.06,0.22-0.09,0.38-0.09c0.16,0,0.29,0.03,0.38,0.08
				c0.09,0.05,0.15,0.12,0.2,0.2c0.05,0.09,0.08,0.2,0.09,0.32c0.01,0.14,0.02,0.28,0.02,0.44v2.77h1.51v-3.25
				c0-0.32-0.05-0.59-0.14-0.82C54.66,13.14,54.53,12.95,54.37,12.81"/>
			<path class="st1" d="M58.84,12.53l-0.95,2.99l-0.99-2.99h-1.61l1.7,4.56c0.03,0.08,0.05,0.16,0.05,0.25
				c0,0.12-0.03,0.22-0.1,0.32c-0.06,0.09-0.16,0.14-0.29,0.15c-0.12,0.01-0.24,0-0.37-0.01l-0.5-0.05v1.29l0.1,0.01
				c0.13,0.01,0.27,0.02,0.4,0.03c0.13,0.01,0.27,0.01,0.4,0.01c0.46,0,0.83-0.09,1.1-0.26c0.27-0.18,0.48-0.47,0.62-0.87l2.02-5.43
				H58.84z"/>
		</g>
		<path class="st0" d="M40.93,4.02h-1.96c-0.03,0-0.06,0.02-0.07,0.05l0,0.02l-0.58,3.19h-0.02l-0.58-3.19c0-0.01,0-0.02,0-0.02
			c-0.01-0.03-0.04-0.05-0.07-0.05h-1.96c-0.04,0-0.08,0.03-0.08,0.08v5.36c0,0.04,0.03,0.08,0.08,0.08h1.22
			c0.04,0,0.08-0.03,0.08-0.08V5.42h0.02l0.77,4.04l0,0c0.01,0.03,0.04,0.06,0.08,0.06h0.93c0.03,0,0.06-0.02,0.07-0.05l0-0.02
			l0.77-4.03h0.02v4.03c0,0.04,0.03,0.08,0.08,0.08h1.22c0.04,0,0.08-0.03,0.08-0.08V4.09C41,4.05,40.97,4.02,40.93,4.02
			 M52.03,4.02h-1.31c-0.04,0-0.08,0.03-0.08,0.08v3.9c0,0.27-0.04,0.45-0.12,0.54c-0.08,0.09-0.19,0.14-0.32,0.14
			c-0.14,0-0.24-0.05-0.32-0.14c-0.08-0.09-0.12-0.27-0.12-0.54v-3.9c0-0.04-0.03-0.08-0.08-0.08h-1.31c-0.04,0-0.08,0.03-0.08,0.08
			v3.54c0,0.39,0.04,0.71,0.13,0.97c0.08,0.26,0.21,0.46,0.37,0.62c0.16,0.15,0.36,0.26,0.6,0.32c0.24,0.06,0.51,0.08,0.82,0.08
			c0.31,0,0.59-0.03,0.82-0.08c0.24-0.06,0.44-0.16,0.6-0.32c0.16-0.15,0.28-0.36,0.37-0.62c0.08-0.26,0.13-0.58,0.13-0.97V4.09
			C52.11,4.05,52.07,4.02,52.03,4.02 M47.06,6.62c-0.18-0.13-0.37-0.23-0.58-0.31c-0.21-0.08-0.4-0.16-0.58-0.24
			c-0.18-0.08-0.33-0.17-0.45-0.27c-0.12-0.11-0.18-0.25-0.18-0.43c0-0.12,0.04-0.24,0.11-0.34c0.07-0.1,0.19-0.15,0.35-0.15
			c0.14,0,0.25,0.06,0.32,0.17c0.07,0.12,0.1,0.26,0.1,0.42v0.05c0,0.04,0.04,0.08,0.08,0.08h1.22c0.04,0,0.08-0.03,0.08-0.07
			c0,0,0,0,0,0c0,0,0,0,0,0c-0.01-0.55-0.16-0.95-0.43-1.21c-0.29-0.27-0.75-0.4-1.4-0.4c-0.62,0-1.09,0.15-1.39,0.44
			c-0.31,0.29-0.46,0.72-0.46,1.28c0,0.32,0.06,0.59,0.17,0.79c0.11,0.2,0.26,0.36,0.43,0.49c0.17,0.12,0.36,0.22,0.56,0.3
			c0.2,0.08,0.39,0.15,0.56,0.23C45.75,7.51,45.89,7.6,46,7.7c0.11,0.11,0.17,0.25,0.17,0.43c0,0.15-0.04,0.28-0.12,0.38
			c-0.08,0.1-0.2,0.15-0.35,0.15c-0.14,0-0.26-0.05-0.35-0.14c-0.09-0.1-0.14-0.26-0.14-0.5V7.97c0-0.04-0.03-0.08-0.08-0.08h-1.27
			c-0.04,0-0.08,0.03-0.08,0.08v0.12c0,0.29,0.04,0.53,0.13,0.73c0.08,0.2,0.21,0.35,0.37,0.47c0.16,0.12,0.36,0.21,0.59,0.26
			c0.23,0.05,0.51,0.07,0.81,0.07c0.65,0,1.15-0.13,1.49-0.4c0.34-0.27,0.51-0.69,0.51-1.28c0-0.33-0.06-0.61-0.18-0.81
			C47.39,6.92,47.24,6.75,47.06,6.62 M43.08,4.02h-1.27c-0.04,0-0.08,0.03-0.08,0.08v1.24c0,0.04,0.03,0.08,0.08,0.08h1.27
			c0.04,0,0.08-0.03,0.08-0.08V4.09C43.16,4.05,43.12,4.02,43.08,4.02 M43.08,5.9h-1.27c-0.04,0-0.08,0.03-0.08,0.08v3.48
			c0,0.04,0.03,0.08,0.08,0.08h1.27c0.04,0,0.08-0.03,0.08-0.08V5.97C43.16,5.93,43.12,5.9,43.08,5.9 M58.19,4.02h-1.96
			c-0.03,0-0.06,0.02-0.07,0.05l0,0.02l-0.58,3.19h-0.02l-0.58-3.19c0-0.01,0-0.02-0.01-0.02c-0.01-0.03-0.04-0.05-0.07-0.05h-1.96
			c-0.04,0-0.08,0.03-0.08,0.08v5.36c0,0.04,0.03,0.08,0.08,0.08h1.22c0.04,0,0.08-0.03,0.08-0.08V5.42h0.02l0.77,4.04v0
			c0.01,0.03,0.04,0.06,0.08,0.06h0.93c0.03,0,0.06-0.02,0.07-0.05l0-0.02l0.77-4.03h0.02v4.03c0,0.04,0.03,0.08,0.08,0.08h1.22
			c0.04,0,0.08-0.03,0.08-0.08V4.09C58.26,4.05,58.23,4.02,58.19,4.02 M60.34,4.02h-1.27C59.03,4.02,59,4.05,59,4.09v1.24
			c0,0.04,0.03,0.08,0.08,0.08h1.27c0.04,0,0.08-0.03,0.08-0.08V4.09C60.42,4.05,60.38,4.02,60.34,4.02 M60.34,5.9h-1.27
			C59.03,5.9,59,5.93,59,5.97v3.48c0,0.04,0.03,0.08,0.08,0.08h1.27c0.04,0,0.08-0.03,0.08-0.08V5.97
			C60.42,5.93,60.38,5.9,60.34,5.9"/>
	</g>
</g>
</svg>
