<?xml version="1.0" encoding="utf-8"?>
<!-- Generator: Adobe Illustrator 25.4.6, SVG Export Plug-In . SVG Version: 6.00 Build 0)  -->
<svg version="1.1" xmlns="http://www.w3.org/2000/svg" xmlns:xlink="http://www.w3.org/1999/xlink" x="0px" y="0px"
	 viewBox="0 0 55 24.4" style="enable-background:new 0 0 55 24.4;" xml:space="preserve">
<style type="text/css">
	.st0{display:none;}
	.st1{display:inline;}
	.st2{fill:#FFFFFF;}
	.st3{fill:#FFCC00;}
</style>
<g id="GUIDE" class="st0">
	<g class="st1">
	</g>
</g>
<g id="BASE">
</g>
<g id="LOGO">
	<g>
		<rect width="55" height="24.4"/>
		<g>
			<g>
				<path class="st2" d="M8.98,14.73c-0.23-0.31-0.53-0.57-0.89-0.76c-0.36-0.19-0.78-0.28-1.26-0.28c-0.43,0-0.82,0.08-1.18,0.23
					c-0.35,0.15-0.66,0.36-0.92,0.63c-0.26,0.27-0.45,0.59-0.59,0.95C4,15.86,3.93,16.26,3.93,16.68c0,0.43,0.07,0.83,0.2,1.2
					c0.13,0.36,0.33,0.68,0.58,0.94c0.25,0.26,0.56,0.47,0.92,0.61c0.36,0.14,0.76,0.21,1.2,0.21c0.64,0,1.19-0.15,1.64-0.44
					c0.46-0.29,0.8-0.79,1.02-1.46l0.05-0.17H7.95l-0.03,0.09c-0.04,0.14-0.16,0.27-0.35,0.41c-0.19,0.13-0.43,0.2-0.7,0.2
					c-0.38,0-0.68-0.1-0.87-0.29c-0.18-0.17-0.28-0.45-0.32-0.82h3.89l0.01-0.12c0.03-0.43-0.01-0.85-0.11-1.24
					C9.37,15.4,9.2,15.04,8.98,14.73 M7.81,15.96H5.69c0.01-0.06,0.03-0.12,0.05-0.19c0.03-0.11,0.09-0.23,0.18-0.33
					c0.08-0.1,0.19-0.19,0.33-0.26c0.14-0.07,0.32-0.11,0.53-0.11c0.32,0,0.56,0.08,0.72,0.25C7.63,15.47,7.74,15.68,7.81,15.96"/>
				<path class="st2" d="M14.26,17.29c-0.04,0.31-0.15,0.55-0.33,0.73c-0.17,0.17-0.41,0.26-0.73,0.26c-0.2,0-0.38-0.05-0.52-0.14
					c-0.14-0.09-0.26-0.21-0.34-0.36c-0.09-0.15-0.15-0.32-0.19-0.51c-0.04-0.19-0.06-0.38-0.06-0.57c0-0.19,0.02-0.39,0.06-0.59
					c0.04-0.19,0.11-0.37,0.2-0.53c0.09-0.15,0.21-0.28,0.35-0.38c0.14-0.09,0.31-0.14,0.52-0.14c0.57,0,0.88,0.26,0.97,0.82
					L14.22,16h1.7l-0.01-0.14c-0.02-0.37-0.11-0.69-0.27-0.96c-0.15-0.27-0.36-0.5-0.61-0.68c-0.25-0.18-0.53-0.31-0.84-0.4
					c-0.31-0.09-0.63-0.13-0.96-0.13c-0.46,0-0.87,0.08-1.22,0.23c-0.36,0.15-0.67,0.37-0.91,0.64c-0.25,0.27-0.44,0.6-0.57,0.98
					c-0.13,0.37-0.19,0.78-0.19,1.21c0,0.42,0.07,0.81,0.21,1.16c0.14,0.35,0.33,0.66,0.58,0.92c0.25,0.26,0.55,0.46,0.91,0.6
					c0.35,0.14,0.74,0.21,1.16,0.21c0.75,0,1.37-0.2,1.85-0.59c0.49-0.4,0.78-0.98,0.88-1.73l0.02-0.15h-1.69L14.26,17.29z"/>
				<path class="st2" d="M21.69,14.51c-0.26-0.26-0.57-0.46-0.93-0.61c-0.36-0.14-0.76-0.21-1.2-0.21c-0.44,0-0.84,0.07-1.2,0.21
					c-0.36,0.14-0.67,0.35-0.92,0.61c-0.26,0.26-0.46,0.58-0.59,0.95c-0.14,0.37-0.21,0.78-0.21,1.22c0,0.45,0.07,0.86,0.21,1.22
					c0.14,0.36,0.34,0.68,0.59,0.94c0.26,0.26,0.57,0.46,0.92,0.6c0.36,0.14,0.76,0.21,1.2,0.21c0.44,0,0.84-0.07,1.2-0.21
					c0.36-0.14,0.67-0.34,0.93-0.6c0.26-0.26,0.46-0.58,0.59-0.94c0.14-0.36,0.21-0.77,0.21-1.22c0-0.45-0.07-0.86-0.21-1.22
					C22.14,15.09,21.94,14.77,21.69,14.51 M18.37,16.68c0-0.21,0.02-0.41,0.06-0.61c0.04-0.19,0.11-0.36,0.2-0.51
					c0.09-0.14,0.21-0.26,0.36-0.35c0.15-0.09,0.34-0.13,0.56-0.13c0.23,0,0.42,0.04,0.57,0.13c0.15,0.09,0.27,0.21,0.36,0.35
					c0.09,0.15,0.16,0.32,0.2,0.51c0.04,0.2,0.06,0.41,0.06,0.61c0,0.21-0.02,0.41-0.06,0.61c-0.04,0.19-0.1,0.36-0.2,0.51
					c-0.09,0.14-0.21,0.26-0.36,0.35c-0.15,0.09-0.34,0.13-0.57,0.13c-0.23,0-0.42-0.04-0.56-0.13c-0.15-0.09-0.27-0.2-0.36-0.35
					c-0.09-0.15-0.16-0.32-0.2-0.51C18.39,17.09,18.37,16.88,18.37,16.68"/>
				<path class="st2" d="M28.21,14.35c-0.16-0.21-0.38-0.37-0.65-0.49c-0.27-0.11-0.62-0.17-1.03-0.17c-0.33,0-0.66,0.08-0.98,0.23
					c-0.22,0.11-0.41,0.25-0.58,0.44v-0.53H23.3v5.67h1.75v-2.97c0-0.52,0.08-0.89,0.25-1.11c0.16-0.21,0.41-0.31,0.78-0.31
					c0.31,0,0.52,0.09,0.63,0.27c0.13,0.2,0.19,0.51,0.19,0.93v3.19h1.75v-3.46c0-0.34-0.03-0.66-0.09-0.94
					C28.48,14.81,28.37,14.56,28.21,14.35"/>
				<path class="st2" d="M34.51,14.51c-0.26-0.26-0.57-0.46-0.93-0.61c-0.36-0.14-0.76-0.21-1.2-0.21c-0.44,0-0.84,0.07-1.2,0.21
					c-0.36,0.14-0.67,0.35-0.92,0.61c-0.26,0.26-0.46,0.58-0.59,0.95v0c-0.14,0.37-0.21,0.78-0.21,1.22c0,0.45,0.07,0.86,0.21,1.22
					c0.14,0.36,0.34,0.68,0.59,0.94c0.26,0.26,0.57,0.46,0.92,0.6c0.36,0.14,0.76,0.21,1.2,0.21c0.44,0,0.84-0.07,1.2-0.21
					c0.36-0.14,0.67-0.34,0.93-0.6c0.26-0.26,0.46-0.58,0.59-0.94c0.14-0.36,0.21-0.77,0.21-1.22c0-0.45-0.07-0.86-0.21-1.22
					C34.96,15.08,34.76,14.77,34.51,14.51 M33.56,16.68c0,0.21-0.02,0.41-0.06,0.61c-0.04,0.19-0.1,0.36-0.2,0.51
					c-0.09,0.14-0.21,0.26-0.36,0.35c-0.15,0.09-0.34,0.13-0.57,0.13s-0.42-0.04-0.56-0.13c-0.15-0.09-0.27-0.2-0.36-0.35
					c-0.09-0.15-0.16-0.32-0.2-0.51c-0.04-0.2-0.06-0.4-0.06-0.61c0-0.21,0.02-0.41,0.06-0.61c0.04-0.19,0.1-0.36,0.2-0.51
					c0.09-0.14,0.21-0.26,0.36-0.35c0.15-0.09,0.34-0.13,0.56-0.13c0.23,0,0.42,0.04,0.57,0.13c0.15,0.09,0.27,0.21,0.36,0.35
					c0.09,0.15,0.16,0.32,0.2,0.51C33.54,16.26,33.56,16.47,33.56,16.68"/>
				<path class="st2" d="M44.1,14.16c-0.19-0.17-0.42-0.29-0.68-0.36c-0.25-0.07-0.53-0.11-0.83-0.11c-0.4,0-0.75,0.1-1.05,0.29
					c-0.22,0.15-0.41,0.31-0.56,0.49c-0.15-0.26-0.36-0.46-0.61-0.57c-0.3-0.14-0.63-0.21-0.99-0.21c-0.38,0-0.72,0.08-1.01,0.25
					c-0.2,0.11-0.38,0.25-0.53,0.42v-0.52h-1.66v5.67h1.75v-3.27c0-0.24,0.03-0.44,0.1-0.59c0.07-0.15,0.15-0.26,0.24-0.33
					c0.09-0.08,0.19-0.13,0.29-0.15c0.1-0.03,0.19-0.04,0.24-0.04c0.21,0,0.37,0.03,0.47,0.1c0.1,0.07,0.17,0.15,0.21,0.26
					c0.05,0.12,0.07,0.25,0.08,0.39c0.01,0.16,0.01,0.31,0.01,0.47v3.17h1.75v-3.14c0-0.16,0.01-0.32,0.04-0.48
					c0.02-0.15,0.07-0.28,0.13-0.39c0.06-0.11,0.15-0.2,0.26-0.27c0.11-0.07,0.26-0.1,0.44-0.1c0.19,0,0.33,0.03,0.43,0.09
					c0.1,0.06,0.18,0.13,0.23,0.23c0.05,0.1,0.09,0.23,0.1,0.37c0.01,0.16,0.02,0.32,0.02,0.5v3.2h1.75v-3.75
					c0-0.36-0.05-0.68-0.16-0.94C44.43,14.55,44.28,14.33,44.1,14.16"/>
				<path class="st2" d="M49.25,13.84l-1.1,3.45l-1.14-3.45h-1.86l1.96,5.25c0.04,0.09,0.05,0.18,0.05,0.29
					c0,0.13-0.04,0.25-0.12,0.36c-0.07,0.1-0.18,0.16-0.34,0.18c-0.14,0.01-0.28,0-0.42-0.01l-0.57-0.06v1.49l0.12,0.01
					c0.15,0.01,0.31,0.03,0.46,0.04c0.15,0.01,0.31,0.02,0.46,0.02c0.53,0,0.96-0.1,1.26-0.3c0.31-0.2,0.55-0.54,0.72-1.01
					l2.33-6.26H49.25z"/>
			</g>
			<path class="st3" d="M28.6,4.03h-2.26c-0.04,0-0.07,0.03-0.09,0.06l-0.01,0.03l-0.67,3.68h-0.02L24.9,4.12
				c0-0.01,0-0.02-0.01-0.03c-0.01-0.03-0.05-0.06-0.08-0.06h-2.26c-0.05,0-0.09,0.04-0.09,0.09v6.18c0,0.05,0.04,0.09,0.09,0.09
				h1.4c0.05,0,0.09-0.04,0.09-0.09V5.65h0.02l0.89,4.66l0,0c0.01,0.04,0.05,0.07,0.09,0.07h1.07c0.04,0,0.07-0.03,0.09-0.06l0-0.02
				l0.89-4.65h0.02v4.64c0,0.05,0.04,0.09,0.09,0.09h1.4c0.05,0,0.09-0.04,0.09-0.09V4.12C28.69,4.07,28.65,4.03,28.6,4.03
				 M41.4,4.03h-1.52c-0.05,0-0.09,0.04-0.09,0.09v4.49c0,0.31-0.05,0.51-0.14,0.62c-0.09,0.1-0.22,0.16-0.37,0.16
				c-0.16,0-0.28-0.05-0.37-0.16c-0.09-0.1-0.14-0.31-0.14-0.62V4.12c0-0.05-0.04-0.09-0.09-0.09h-1.51c-0.05,0-0.09,0.04-0.09,0.09
				v4.08c0,0.45,0.05,0.82,0.15,1.11c0.1,0.3,0.24,0.53,0.42,0.71c0.18,0.18,0.42,0.3,0.69,0.36c0.28,0.06,0.59,0.1,0.94,0.1
				c0.36,0,0.68-0.03,0.95-0.1c0.27-0.07,0.5-0.19,0.69-0.36c0.19-0.18,0.33-0.42,0.42-0.71c0.1-0.3,0.15-0.67,0.15-1.11V4.12
				C41.49,4.07,41.45,4.03,41.4,4.03 M35.67,7.03c-0.21-0.15-0.43-0.27-0.67-0.36c-0.24-0.09-0.46-0.18-0.67-0.27
				c-0.21-0.09-0.38-0.19-0.52-0.32c-0.14-0.12-0.21-0.29-0.21-0.49c0-0.14,0.04-0.27,0.13-0.39c0.09-0.12,0.22-0.17,0.4-0.17
				c0.17,0,0.29,0.07,0.37,0.2c0.08,0.13,0.12,0.29,0.12,0.48v0.06c0,0.05,0.04,0.09,0.09,0.09h1.4c0.05,0,0.09-0.04,0.09-0.08
				c0,0,0,0,0,0c0,0,0,0,0,0c-0.01-0.63-0.18-1.1-0.5-1.4c-0.33-0.31-0.87-0.47-1.61-0.47c-0.72,0-1.25,0.17-1.61,0.51
				c-0.35,0.34-0.53,0.83-0.53,1.48c0,0.37,0.07,0.68,0.2,0.91c0.13,0.23,0.3,0.42,0.49,0.56c0.2,0.14,0.41,0.26,0.64,0.35
				c0.23,0.09,0.45,0.18,0.64,0.26c0.2,0.09,0.36,0.19,0.49,0.31c0.13,0.12,0.2,0.29,0.2,0.49c0,0.17-0.05,0.32-0.14,0.44
				c-0.09,0.12-0.23,0.18-0.41,0.18c-0.16,0-0.3-0.06-0.4-0.16c-0.1-0.11-0.16-0.3-0.16-0.57V8.58c0-0.05-0.04-0.09-0.09-0.09h-1.46
				c-0.05,0-0.09,0.04-0.09,0.09v0.13c0,0.33,0.05,0.61,0.15,0.84c0.1,0.23,0.24,0.41,0.42,0.55c0.19,0.14,0.41,0.24,0.68,0.29
				c0.27,0.06,0.58,0.08,0.94,0.08c0.75,0,1.32-0.15,1.72-0.46c0.4-0.31,0.59-0.8,0.59-1.47c0-0.39-0.07-0.7-0.21-0.94
				C36.05,7.37,35.88,7.18,35.67,7.03 M31.08,4.03h-1.46c-0.05,0-0.09,0.04-0.09,0.09v1.42c0,0.05,0.04,0.09,0.09,0.09h1.46
				c0.05,0,0.09-0.04,0.09-0.09V4.12C31.17,4.07,31.13,4.03,31.08,4.03 M31.08,6.19h-1.46c-0.05,0-0.09,0.04-0.09,0.09v4.01
				c0,0.05,0.04,0.09,0.09,0.09h1.46c0.05,0,0.09-0.04,0.09-0.09V6.28C31.17,6.23,31.13,6.19,31.08,6.19 M48.49,4.03h-2.26
				c-0.04,0-0.07,0.03-0.09,0.06l0,0.03l-0.67,3.68h-0.02l-0.67-3.68c0-0.01,0-0.02-0.01-0.03c-0.01-0.03-0.04-0.06-0.08-0.06h-2.26
				c-0.05,0-0.09,0.04-0.09,0.09v6.18c0,0.05,0.04,0.09,0.09,0.09h1.4c0.05,0,0.09-0.04,0.09-0.09V5.65h0.02l0.89,4.66v0
				c0.01,0.04,0.05,0.07,0.09,0.07h1.07c0.04,0,0.07-0.03,0.09-0.06l0.01-0.02l0.89-4.65H47v4.64c0,0.05,0.04,0.09,0.09,0.09h1.4
				c0.05,0,0.09-0.04,0.09-0.09V4.12C48.58,4.07,48.54,4.03,48.49,4.03 M50.98,4.03h-1.46c-0.05,0-0.09,0.04-0.09,0.09v1.42
				c0,0.05,0.04,0.09,0.09,0.09h1.46c0.05,0,0.09-0.04,0.09-0.09V4.12C51.07,4.07,51.03,4.03,50.98,4.03 M50.98,6.19h-1.46
				c-0.05,0-0.09,0.04-0.09,0.09v4.01c0,0.05,0.04,0.09,0.09,0.09h1.46c0.05,0,0.09-0.04,0.09-0.09V6.28
				C51.07,6.23,51.03,6.19,50.98,6.19"/>
		</g>
	</g>
</g>
</svg>
