<svg width="16" height="16" viewBox="0 0 16 16" fill="none" xmlns="http://www.w3.org/2000/svg">
<path d="M0 8C0 3.58172 3.58172 0 8 0C12.4183 0 16 3.58172 16 8C16 12.4183 12.4183 16 8 16C3.58172 16 0 12.4183 0 8Z" fill="#004098"/>
<path fill-rule="evenodd" clip-rule="evenodd" d="M9.90781 4.40625C9.69517 4.18484 9.43974 4.00897 9.15704 3.88933C8.80135 3.74691 8.41997 3.67986 8.03704 3.6924C7.66535 3.68565 7.29638 3.75693 6.95396 3.90163C6.65981 4.02471 6.40011 4.21425 6.19088 4.45548C5.98706 4.67717 5.82822 4.93632 5.72319 5.21856C5.62554 5.50525 5.56354 5.80287 5.53857 6.10471H7.05242C7.0594 5.90937 7.1216 5.72001 7.23183 5.55859C7.34206 5.39717 7.49579 5.27031 7.67519 5.19271C7.7941 5.14586 7.92174 5.12529 8.04934 5.1324C8.15942 5.11491 8.27157 5.11491 8.38165 5.1324C8.48278 5.17065 8.57495 5.2293 8.65242 5.30471C8.73793 5.3787 8.8053 5.47134 8.84934 5.57548C8.89976 5.69196 8.92493 5.8178 8.92319 5.94471C8.92319 6.15763 8.87765 6.36686 8.78781 6.5601C8.69842 6.76057 8.58696 6.95046 8.4555 7.12625L8.02473 7.64317C7.87704 7.80317 7.72934 7.97548 7.59396 8.14779C7.46269 8.3193 7.35121 8.50509 7.26165 8.70163C7.17627 8.89534 7.13426 9.10537 7.13857 9.31702V10.1293H8.6155V9.52625C8.61967 9.34574 8.66603 9.16871 8.75088 9.00933C8.85203 8.83215 8.96728 8.6634 9.0955 8.50471L9.53857 7.96317C9.69987 7.77683 9.84793 7.57943 9.98165 7.3724C10.1231 7.1613 10.2388 6.93405 10.3263 6.69548C10.416 6.44257 10.4618 6.17616 10.4617 5.90779C10.4638 5.62818 10.4223 5.34995 10.3386 5.08317C10.2456 4.82903 10.0987 4.59808 9.90781 4.40625ZM7.13857 10.8678H8.57857V12.3078H7.13857V10.8678Z" fill="white"/>
</svg>
