<svg width="48" height="48" viewBox="0 0 48 48" fill="none" xmlns="http://www.w3.org/2000/svg">
<path d="M1.68424 29.6095V9.18727C1.68424 8.05245 2.60416 7.13245 3.73906 7.13245H24.1508C25.2856 7.13245 26.2056 8.05245 26.2056 9.18727V29.6096C26.2056 29.9879 25.899 30.2946 25.5206 30.2946H2.36918C1.99082 30.2946 1.68424 29.9879 1.68424 29.6095ZM18.1674 36.6058C18.1674 38.9595 16.2592 40.8676 13.9056 40.8676C11.5519 40.8676 9.64377 38.9595 9.64377 36.6058C9.64377 34.252 11.5519 32.344 13.9056 32.344C16.2592 32.344 18.1674 34.252 18.1674 36.6058ZM16.0364 36.6058C16.0364 35.4289 15.0824 34.4749 13.9055 34.4749C12.7286 34.4749 11.7745 35.4289 11.7745 36.6058C11.7745 37.7826 12.7286 38.7368 13.9055 38.7368C15.0824 38.7368 16.0364 37.7826 16.0364 36.6058ZM10.2349 32.3439H0.684941C0.306667 32.3439 0 32.6506 0 33.0288V35.1069C0 35.4852 0.306667 35.7918 0.684941 35.7918H8.33969C8.53953 34.4205 9.23169 33.2092 10.2349 32.3439ZM40.4657 36.6058C40.4657 38.9595 38.5576 40.8676 36.2039 40.8676C33.8502 40.8676 31.9421 38.9595 31.9421 36.6058C31.9421 34.252 33.8502 32.344 36.2039 32.344C38.5576 32.3439 40.4657 34.252 40.4657 36.6058ZM38.3349 36.6058C38.3349 35.4289 37.3808 34.4749 36.2039 34.4749C35.027 34.4749 34.073 35.4289 34.073 36.6058C34.073 37.7826 35.0271 38.7368 36.2039 38.7368C37.3808 38.7368 38.3349 37.7826 38.3349 36.6058ZM48 33.0288V35.1069C48 35.4852 47.6933 35.7918 47.3151 35.7918H41.7696C41.373 33.0716 39.0319 30.974 36.2041 30.974C33.3757 30.974 31.0345 33.0717 30.6379 35.7918H19.4715C19.2715 34.4206 18.5795 33.2092 17.5762 32.3439H28.164V12.7524C28.164 11.9959 28.7773 11.3826 29.5339 11.3826H36.0002C37.8209 11.3826 39.5226 12.287 40.5413 13.7959L44.71 19.9701C45.3214 20.8757 45.6482 21.9435 45.6482 23.0363V32.3439H47.3151C47.6933 32.3439 48 32.6506 48 33.0288ZM41.0516 20.1282L37.7182 15.3915C37.5899 15.2092 37.3809 15.1008 37.158 15.1008H31.9584C31.5802 15.1008 31.2735 15.4074 31.2735 15.7857V20.5224C31.2735 20.9008 31.5802 21.2073 31.9584 21.2073H40.4916C41.0464 21.2073 41.371 20.582 41.0516 20.1282Z" fill="#1D2C4E"/>
</svg>
