<?xml version="1.0" encoding="UTF-8"?>
<svg width="19px" height="24px" viewBox="0 0 19 24" version="1.1" xmlns="http://www.w3.org/2000/svg" xmlns:xlink="http://www.w3.org/1999/xlink">
    <!-- Generator: Sketch 57.1 (83088) - https://sketch.com -->
    <title>hot-sale (1)</title>
    <desc>Created with Sketch.</desc>
    <g id="Symbols" stroke="none" stroke-width="1" fill="none" fill-rule="evenodd">
        <g id="tag-/-sale2" fill-rule="nonzero">
            <g id="Group-3">
                <g id="hot-sale-(1)">
                    <path d="M15.4449935,8.91913692 C11.3045596,4.5156957 10.3640174,1.09090909 10.3640174,1.09090909 C10.3640174,1.09090909 9.64692846,1.39905503 8.8397151,2.10506608 L7.82352941,13.3225323 L8.8397151,22.9090909 L8.83976273,22.9090909 C13.8338536,22.9090909 17.8823529,19.0106182 17.8823529,14.2016977 C17.8823529,12.2153077 16.7302662,10.2860701 15.4449935,8.91913692 Z" id="Path" fill="#FF6200"></path>
                    <path d="M8.55161959,4.09616934 C8.03949995,5.0899959 7.91887654,6.21045572 7.92377495,7.07029141 C7.92848496,7.90439829 7.32287158,8.62425648 6.47992067,8.78786061 C5.89098074,8.90215501 5.28216454,8.72328725 4.85746273,8.31121505 L4.03000777,7.50836661 C4.03000777,7.50836661 2.80333216,9.14948059 2.59312431,9.45822627 C1.64890815,10.8450226 1.10414812,12.5103116 1.11790136,14.2998575 C1.15454525,19.0791547 5.13290425,22.9090909 10.0588235,22.9090909 L10.0588235,2.18181818 C9.53671866,2.64192053 8.9765569,3.27156795 8.55161959,4.09616934 Z" id="Path" fill="#FD7D21"></path>
                    <g id="Group">
                        <path d="M16.4371265,8.506875 C14.4320949,6.26142188 13.2405499,4.28475 12.5939489,3.02189062 C11.8936764,1.65403125 11.6641971,0.805828125 11.6624404,0.799078125 L11.4539951,0 L10.709528,0.336703125 C10.6671363,0.355875 10.1575109,0.591421875 9.51266667,1.09785938 L9.01954501,1.97882813 L9.51266667,3.0155625 C9.8980292,2.57723438 10.2955036,2.24957813 10.6151752,2.02275 C11.1367275,3.367875 12.4588224,6.14685938 15.4090462,9.45079688 C16.0662798,10.1868281 17.5949708,12.1402969 17.5949708,14.3773125 C17.5949708,18.8962031 13.969253,22.5726094 9.5127129,22.5726094 L9.51266667,22.5726094 L9.01954501,23.4788437 L9.51266667,23.9788594 L9.5127129,23.9788594 C14.7340146,23.9788594 18.9818321,19.6716094 18.9818321,14.3773125 C18.9818321,12.4576875 18.0543455,10.3180313 16.4371265,8.506875 Z" id="Path" fill="#FFB62D"></path>
                        <path d="M3.81382238,20.1996094 C2.29299027,18.6693281 1.44663504,16.62375 1.43059367,14.4397969 C1.41857421,12.8048906 1.87956691,11.2234219 2.763691,9.8664375 C2.87163504,9.70078125 3.30465937,9.08821875 3.68054501,8.55960938 L3.91718978,8.7995625 C4.4993017,9.3898125 5.32855231,9.64448438 6.13598297,9.48075 C7.28652311,9.24740625 8.11697567,8.2149375 8.11054988,7.02567188 C8.10652798,6.2896875 8.19750608,5.21826563 8.65355231,4.29332813 C8.90092214,3.79167188 9.20288808,3.36796875 9.51266667,3.01560938 L9.51266667,1.09785938 C8.83347445,1.63134375 8.0043163,2.4654375 7.41309732,3.66440625 C6.83454501,4.83773438 6.71883455,6.14409375 6.72368856,7.0333125 C6.72650852,7.5508125 6.36490754,8.00015625 5.86392701,8.10173438 C5.51268127,8.17289063 5.15135766,8.06217188 4.89783942,7.80510938 L3.51111679,6.399 L3.03408273,7.06598438 C2.98457178,7.13521875 1.81877616,8.76548438 1.60654015,9.09121875 C0.570138686,10.6820156 0.0297250608,12.535125 0.0437323601,14.4502031 C0.0625012165,17.0079375 1.05447689,19.4042344 2.83691727,21.1977656 C4.61921898,22.9911562 6.99005839,23.9788125 9.51266667,23.9788125 L9.51266667,22.5725625 C7.35850122,22.5725625 5.33460827,21.7298438 3.81382238,20.1996094 Z" id="Path" fill="#FDCB02"></path>
                    </g>
                    <g id="Group" transform="translate(4.470588, 9.818182)">
                        <path d="M5.57757976,0.00194970986 C5.57232303,0.00194970986 5.5670663,0.00213539652 5.56180957,0.00213539652 L4.37800349,5.44874275 L5.56180957,10.8953501 C5.5670663,10.8953501 5.57232303,10.8955358 5.57757976,10.8955358 C8.64642074,10.8955358 11.1342273,8.45691296 11.1342273,5.44874275 C11.1342273,2.44057253 8.64642074,0.00194970986 5.57757976,0.00194970986 Z" id="Path" fill="#ED3800"></path>
                        <path d="M0.0208848455,5.44874275 C0.0208848455,8.45176015 2.500167,10.8869942 5.56176221,10.8953501 L5.56176221,0.00213539652 C2.50021436,0.0104912959 0.0208848455,2.44572534 0.0208848455,5.44874275 Z" id="Path" fill="#FF4B00"></path>
                    </g>
                    <g id="Group" transform="translate(5.588235, 12.000000)">
                        <polygon id="Path" fill="#D9E7EC" points="6.76990118 0.114568341 5.28320706 0.114568341 3.90912706 2.17478449 3.44718118 4.06834329 3.90912706 4.4039466"></polygon>
                        <path d="M6.18049882,2.99681119 C5.24802353,2.99681119 4.54421882,3.63629752 4.54421882,4.75319008 C4.54421882,5.87905404 5.24797882,6.5095232 6.18049882,6.5095232 C7.11301882,6.5095232 7.81677882,5.87905404 7.81677882,4.75319008 C7.81677882,3.63629752 7.11297412,2.99681119 6.18049882,2.99681119 Z M6.18049882,5.53676796 C5.98696706,5.53676796 5.79343529,5.35660776 5.79343529,4.75314431 C5.79343529,4.14968086 5.98696706,3.96952066 6.18049882,3.96952066 C6.37403059,3.96952066 6.56756235,4.14968086 6.56756235,4.75314431 C6.56756235,5.35660776 6.37403059,5.53676796 6.18049882,5.53676796 Z" id="Shape" fill="#D9E7EC"></path>
                        <polygon id="Path" fill="#FAFCFD" points="2.56486588 6.4194431 3.90912706 4.4039466 3.90912706 2.17478449 1.07817176 6.4194431"></polygon>
                        <path d="M3.30385412,1.78086713 C3.30385412,0.664020343 2.60009412,0.024488239 1.66757412,0.024488239 C0.735054118,0.024488239 0.0312941176,0.663974571 0.0312941176,1.78086713 C0.0312941176,2.90673109 0.735054118,3.53724603 1.66757412,3.53724603 C2.60009412,3.53724603 3.30385412,2.90673109 3.30385412,1.78086713 Z M1.28051059,1.78086713 C1.28051059,1.17740369 1.47404235,0.997243484 1.66757412,0.997243484 C1.86110588,0.997243484 2.05463765,1.17740369 2.05463765,1.78086713 C2.05463765,2.38433058 1.86110588,2.56449078 1.66757412,2.56449078 C1.47404235,2.56449078 1.28051059,2.38433058 1.28051059,1.78086713 Z" id="Shape" fill="#FAFCFD"></path>
                    </g>
                </g>
            </g>
        </g>
    </g>
</svg>