<svg width="126" height="28" viewBox="0 0 126 28" fill="none" xmlns="http://www.w3.org/2000/svg">
<path d="M50.006 3.21185H42.3865C42.2553 3.21185 42.1422 3.29671 42.101 3.415L42.0805 3.51014L39.8329 15.8998H39.7712L37.5211 3.51014C37.5211 3.47671 37.5134 3.44586 37.5031 3.415C37.462 3.29928 37.3514 3.21185 37.2177 3.21185H29.6008C29.4311 3.21185 29.2974 3.34299 29.2974 3.51014V24.3267C29.2974 24.4913 29.4311 24.625 29.6008 24.625H34.3324C34.4996 24.625 34.6359 24.4939 34.6359 24.3267V8.66865H34.6976L37.696 24.3807V24.3936C37.7294 24.5273 37.8477 24.625 37.9943 24.625H41.6099C41.7462 24.625 41.8593 24.5376 41.9005 24.4193L41.9133 24.3422L44.904 8.66608H44.9657V24.3242C44.9657 24.4887 45.1046 24.6225 45.2718 24.6225H50.0034C50.1705 24.6225 50.3068 24.4913 50.3068 24.3242V3.50757C50.3068 3.34042 50.1705 3.20927 50.0034 3.20927" fill="black"/>
<path d="M93.1514 3.21185H88.0469C87.8797 3.21185 87.7434 3.34299 87.7434 3.51014V18.6642C87.7434 19.7057 87.5891 20.3974 87.2831 20.7472C86.9745 21.0969 86.5554 21.2718 86.0256 21.2718C85.4959 21.2718 85.0742 21.0969 84.7707 20.7472C84.4621 20.4 84.3078 19.7057 84.3078 18.6642V3.50757C84.3078 3.34042 84.1741 3.20927 84.0044 3.20927H78.8973C78.7302 3.20927 78.5913 3.34042 78.5913 3.50757V17.255C78.5913 18.7542 78.7559 20.0066 79.0825 21.0043C79.4091 22.0046 79.8848 22.807 80.5122 23.4061C81.1346 24.0053 81.9137 24.4167 82.8472 24.6353C83.7781 24.8565 84.835 24.9645 86.0256 24.9645C87.2162 24.9645 88.2989 24.8565 89.2195 24.6353C90.1401 24.4167 90.9115 24.0053 91.5364 23.4061C92.1613 22.807 92.6371 22.0046 92.9636 21.0043C93.2928 20.0066 93.4574 18.7542 93.4574 17.255V3.50757C93.4574 3.34042 93.3185 3.20927 93.1514 3.20927" fill="black"/>
<path d="M73.8645 13.3206C73.1676 12.8191 72.4167 12.4154 71.6169 12.1042C70.8172 11.7931 70.0637 11.4871 69.3694 11.1862C68.67 10.8879 68.0914 10.533 67.6285 10.1216C67.1656 9.71012 66.9367 9.15724 66.9367 8.45521C66.9367 7.97433 67.0782 7.53974 67.3713 7.14887C67.6593 6.758 68.1119 6.56513 68.7317 6.56513C69.2897 6.56513 69.6986 6.78886 69.9686 7.24145C70.2386 7.69147 70.3697 8.23406 70.3697 8.87437V9.08781C70.3697 9.25239 70.506 9.38611 70.6758 9.38611H75.4048C75.5694 9.38611 75.7005 9.2601 75.7082 9.10067V9.07238C75.6594 6.93543 75.1014 5.36422 74.0368 4.3639C72.9181 3.31471 71.1078 2.79012 68.6082 2.79012C66.1087 2.79012 64.3832 3.361 63.1952 4.50019C62.0045 5.63938 61.4105 7.30059 61.4105 9.47868C61.4105 10.7413 61.6291 11.7596 62.0714 12.5388C62.5163 13.318 63.0691 13.948 63.7352 14.4289C64.4038 14.9098 65.1264 15.2981 65.9056 15.5989C66.6873 15.8972 67.4099 16.193 68.0759 16.4836C68.7445 16.7741 69.3 17.1239 69.7397 17.5327C70.182 17.9416 70.4032 18.4971 70.4032 19.1965C70.4032 19.7777 70.2437 20.2689 69.9249 20.6674C69.6034 21.066 69.1483 21.2666 68.5517 21.2666C67.9962 21.2666 67.5436 21.084 67.1965 20.7137C66.8467 20.346 66.6719 19.7005 66.6719 18.7799V18.5665C66.6719 18.4019 66.5356 18.2682 66.3684 18.2682H61.4491C61.2819 18.2682 61.1431 18.4019 61.1431 18.5665V19.0191C61.1431 20.1403 61.3076 21.0789 61.6342 21.8426C61.9608 22.6012 62.4391 23.2158 63.064 23.6864C63.6889 24.157 64.4578 24.4887 65.3707 24.679C66.281 24.8693 67.3328 24.9645 68.5234 24.9645C71.0435 24.9645 72.9721 24.4502 74.3042 23.419C75.6362 22.3878 76.3048 20.7317 76.3048 18.4508C76.3048 17.1496 76.0734 16.0952 75.6105 15.2826C75.1477 14.4726 74.5665 13.8169 73.8696 13.318" fill="black"/>
<path d="M58.379 3.21185H53.4597C53.2925 3.21185 53.1562 3.34299 53.1562 3.51014V8.31378C53.1562 8.47836 53.2925 8.61208 53.4597 8.61208H58.379C58.5488 8.61208 58.6851 8.48093 58.6851 8.31378V3.50757C58.6851 3.34042 58.5488 3.20927 58.379 3.20927" fill="black"/>
<path d="M58.379 10.5099H53.4597C53.2925 10.5099 53.1562 10.6436 53.1562 10.8056V24.3267C53.1562 24.4913 53.2925 24.625 53.4597 24.625H58.379C58.5488 24.625 58.6851 24.4939 58.6851 24.3267V10.8082C58.6851 10.6462 58.5488 10.5124 58.379 10.5124" fill="black"/>
<path d="M117.087 3.21185H109.468C109.337 3.21185 109.223 3.29671 109.182 3.415L109.164 3.51014L106.912 15.8998H106.852L104.6 3.51014C104.6 3.47671 104.595 3.44586 104.584 3.415C104.543 3.29928 104.433 3.21185 104.299 3.21185H96.682C96.5123 3.21185 96.376 3.34299 96.376 3.51014V24.3267C96.376 24.4913 96.5123 24.625 96.682 24.625H101.414C101.583 24.625 101.717 24.4939 101.717 24.3267V8.66865H101.779L104.777 24.3807V24.3936C104.811 24.5273 104.931 24.625 105.075 24.625H108.696C108.833 24.625 108.943 24.5376 108.982 24.4193L108.997 24.3422L111.988 8.66608H112.049V24.3242C112.049 24.4887 112.186 24.6225 112.353 24.6225H117.087C117.254 24.6225 117.391 24.4913 117.391 24.3242V3.50757C117.391 3.34042 117.254 3.20927 117.087 3.20927" fill="black"/>
<path d="M125.458 3.21185H120.538C120.371 3.21185 120.235 3.34299 120.235 3.51014V8.31378C120.235 8.47836 120.371 8.61208 120.538 8.61208H125.458C125.625 8.61208 125.761 8.48093 125.761 8.31378V3.50757C125.761 3.34042 125.622 3.20927 125.458 3.20927" fill="black"/>
<path d="M125.458 10.5099H120.538C120.371 10.5099 120.235 10.6436 120.235 10.8056V24.3267C120.235 24.4913 120.371 24.625 120.538 24.625H125.458C125.625 24.625 125.761 24.4939 125.761 24.3267V10.8082C125.761 10.6462 125.622 10.5124 125.458 10.5124" fill="black"/>
<path d="M8.96952 27.8395L14.9303 23.3033V20.6829L15.959 22.5781L22.0226 17.9365L22.0201 7.35974L13.0506 0L10.5767 1.89779V11.0885L2.47382 8.04377L0 9.83613V20.4977L8.96952 27.8395Z" fill="black"/>
<path d="M0.743164 10.8236V20.2277L8.53492 26.6617V17.2576L0.743164 10.8236Z" fill="white"/>
<path d="M0.987305 10.0213L2.59709 8.78437L13.8553 12.9888L8.96936 16.7021L0.987305 10.0213Z" fill="#0F218B"/>
<path d="M9.23682 17.3836L14.1665 13.6729V23.0127L9.23682 26.744V17.3836Z" fill="#FFCC00"/>
<path d="M13.0737 0.907745L11.4048 2.1858L16.1467 11.2582L21.1561 7.54745L13.0737 0.907745Z" fill="#0F218B"/>
<path d="M11.3198 3.5873L15.6503 11.8779V20.4566L14.9071 19.0139V12.6828L11.3198 11.3199V3.5873Z" fill="white"/>
<path d="M21.2796 8.28806V17.633L16.3911 21.4055V12.0014L21.2796 8.28806Z" fill="#FFCC00"/>
</svg>
