<svg width="17" height="16" viewBox="0 0 17 16" fill="none" xmlns="http://www.w3.org/2000/svg">
<g clip-path="url(#clip0_1864_171266)">
<g clip-path="url(#clip1_1864_171266)">
<path d="M14.26 12.27H4.94L2.64 2.4H0.5V1H3.75L4.49 4.17H16.48L14.26 12.27ZM6.05 10.87H13.2L14.65 5.57H4.82L6.05 10.87Z" fill="#333333"/>
<path d="M6.81999 15.7298C7.41646 15.7298 7.89999 15.2463 7.89999 14.6498C7.89999 14.0534 7.41646 13.5698 6.81999 13.5698C6.22352 13.5698 5.73999 14.0534 5.73999 14.6498C5.73999 15.2463 6.22352 15.7298 6.81999 15.7298Z" fill="#333333"/>
<path d="M12.82 15.7298C13.4165 15.7298 13.9 15.2463 13.9 14.6498C13.9 14.0534 13.4165 13.5698 12.82 13.5698C12.2235 13.5698 11.74 14.0534 11.74 14.6498C11.74 15.2463 12.2235 15.7298 12.82 15.7298Z" fill="#333333"/>
</g>
</g>
<defs>
<clipPath id="clip0_1864_171266">
<rect width="16" height="16" fill="white" transform="translate(0.5)"/>
</clipPath>
<clipPath id="clip1_1864_171266">
<rect width="15.98" height="14.72" fill="white" transform="translate(0.5 1)"/>
</clipPath>
</defs>
</svg>
