<svg width="20" height="15" xmlns="http://www.w3.org/2000/svg" version="1.1">

    <g class="currentLayer">
     <title>Layer 1</title>
     <path id="svg_1" fill="#0169C6" d="m6,0c2.64,0 5.28,0 8,0c0,4.95 0,9.9 0,15c-2.64,0 -5.28,0 -8,0c0,-4.95 0,-9.9 0,-15z"/>
     <path id="svg_2" fill="#FFFFFF" d="m8,2c1.32,0 2.64,0 4,0c0,3.63 0,7.26 0,11c-1.32,0 -2.64,0 -4,0c0,-3.63 0,-7.26 0,-11z"/>
     <path id="svg_3" fill="#0169C6" d="m15,3c0.66,0 1.32,0 2,0c0,3.3 0,6.6 0,10c-0.66,0 -1.32,0 -2,0c0,-3.3 0,-6.6 0,-10z"/>
     <path id="svg_4" fill="#0169C6" d="m3,3c0.66,0 1.32,0 2,0c0,3.3 0,6.6 0,10c-0.66,0 -1.32,0 -2,0c0,-3.3 0,-6.6 0,-10z"/>
     <path id="svg_5" fill="#0169C6" d="m18,5c0.66,0 1.32,0 2,0c0,1.98 0,3.96 0,6c-0.66,0 -1.32,0 -2,0c0,-1.98 0,-3.96 0,-6z"/>
     <path id="svg_6" fill="#0169C6" d="m0,5c0.66,0 1.32,0 2,0c0,1.98 0,3.96 0,6c-0.66,0 -1.32,0 -2,0c0,-1.98 0,-3.96 0,-6z"/>
    </g>
    <g>
     <title>Layer 2</title>
     <rect fill="none" y="0" x="0" height="100%" width="100%" id="backgroundrect"/>
    </g>
   </svg>