<svg width="16" height="16" fill="none" xmlns="http://www.w3.org/2000/svg"><g clip-path="url(#a)"><path d="M0 7.99C0 3.577 3.587 0 8 0s8 3.577 8 7.99-3.587 7.99-8 7.99-8-3.577-8-7.99Z" fill="#333"/><path d="M8 15.98c-4.407 0-8-3.584-8-7.99C0 3.583 3.593 0 8 0c4.406 0 8 3.583 8 7.99 0 4.406-3.594 7.99-8 7.99ZM8 1.405c-3.634 0-6.595 2.951-6.595 6.585S4.366 14.575 8 14.575s6.595-2.951 6.595-6.585S11.634 1.405 8 1.405Z" fill="#333"/><path d="M9.064 11.834H7.65V7.097h-.914V5.69h2.33v6.143Z" fill="#fff"/><path d="M10.64 11.443H5.892v1.405h4.748v-1.405ZM8.05 4.898c.588 0 1.064-.467 1.064-1.044 0-.576-.476-1.043-1.064-1.043-.587 0-1.064.467-1.064 1.043 0 .577.477 1.044 1.064 1.044Z" fill="#fff"/></g><defs><clipPath id="a"><path d="M0 7.99C0 3.577 3.587 0 8 0s8 3.577 8 7.99-3.587 7.99-8 7.99-8-3.577-8-7.99Z" fill="#fff"/></clipPath></defs></svg>