<svg width="16" height="16" viewBox="0 0 16 16" fill="none" xmlns="http://www.w3.org/2000/svg">
<g clip-path="url(#clip0_117_1051)">
<path d="M0 7.98996C0 3.57723 3.58727 0 8 0C12.4127 0 16 3.57723 16 7.98996C16 12.4027 12.4127 15.9799 8 15.9799C3.58727 15.9799 0 12.4027 0 7.98996Z" fill="#333333"/>
<path d="M8 15.9799C3.59348 15.9799 0 12.3965 0 7.98996C0 3.58344 3.59348 0 8 0C12.4065 0 16 3.58344 16 7.98996C16 12.3965 12.4065 15.9799 8 15.9799ZM8 1.40527C4.36637 1.40527 1.40527 4.35634 1.40527 7.98996C1.40527 11.6236 4.36637 14.5747 8 14.5747C11.6336 14.5747 14.5947 11.6236 14.5947 7.98996C14.5947 4.35634 11.6336 1.40527 8 1.40527Z" fill="#333333"/>
<path d="M9.06408 11.8344H7.64878V7.09668H6.73535V5.69141H9.06408V11.8344Z" fill="white"/>
<path d="M10.6399 11.4429H5.89209V12.8481H10.6399V11.4429Z" fill="white"/>
<path d="M8.05032 4.89838C8.63794 4.89838 9.11431 4.431 9.11431 3.85446C9.11431 3.27792 8.63794 2.81055 8.05032 2.81055C7.46269 2.81055 6.98633 3.27792 6.98633 3.85446C6.98633 4.431 7.46269 4.89838 8.05032 4.89838Z" fill="white"/>
</g>
<defs>
<clipPath id="clip0_117_1051">
<path d="M0 7.98996C0 3.57723 3.58727 0 8 0C12.4127 0 16 3.57723 16 7.98996C16 12.4027 12.4127 15.9799 8 15.9799C3.58727 15.9799 0 12.4027 0 7.98996Z" fill="white"/>
</clipPath>
</defs>
</svg>
