<svg width="16" height="16" viewBox="0 0 16 16" fill="none" xmlns="http://www.w3.org/2000/svg">
<path d="M15.8401 14.86L12.4701 11.49C13.4698 10.2576 14.0211 8.72219 14.0336 7.13539C14.0461 5.54858 13.5192 4.00461 12.5391 2.75661C11.5589 1.50861 10.1839 0.630656 8.63935 0.266694C7.0948 -0.0972675 5.47242 0.0743644 4.03821 0.753449C2.60401 1.43253 1.44309 2.57877 0.745814 4.00422C0.0485353 5.42967 -0.143726 7.04973 0.200554 8.59879C0.544833 10.1478 1.40522 11.534 2.64065 12.5299C3.87607 13.5258 5.41322 14.0723 7.00005 14.08C8.62408 14.079 10.1972 13.5134 11.4501 12.48L14.8201 15.85L15.8401 14.86ZM1.40005 7C1.40995 5.8874 1.74929 4.80268 2.37524 3.8828C3.00118 2.96293 3.88565 2.24914 4.91697 1.83158C5.94829 1.41402 7.08021 1.31141 8.16981 1.5367C9.2594 1.76199 10.2578 2.30509 11.039 3.0974C11.8201 3.88972 12.349 4.89574 12.5588 5.98842C12.7686 7.0811 12.65 8.21145 12.2178 9.23675C11.7857 10.262 11.0594 11.1363 10.1308 11.7491C9.20211 12.362 8.11268 12.6859 7.00005 12.68C6.25939 12.6748 5.52702 12.5237 4.84474 12.2354C4.16247 11.9471 3.54366 11.5273 3.02364 10.9998C2.50363 10.4724 2.0926 9.8477 1.81403 9.1614C1.53545 8.47511 1.39478 7.74066 1.40005 7Z" fill="#004098"/>
<path d="M6.19011 4.16003H3.86011V6.49003H6.19011V4.16003Z" fill="#004098"/>
<path d="M9.86003 7.81995H7.53003V10.1499H9.86003V7.81995Z" fill="#004098"/>
<path d="M6.19011 7.82007H3.86011V10.1501H6.19011V7.82007Z" fill="#004098"/>
<path d="M15.4501 0.47998H13.1201V2.80998H15.4501V0.47998Z" fill="#004098"/>
</svg>
