<svg width="16" height="16" viewBox="0 0 16 16" fill="none" xmlns="http://www.w3.org/2000/svg">
<path d="M15 16H1V0H15V16ZM2.46816 14.553H13.5318V1.44703H2.46816V14.553Z" fill="#004098"/>
<path d="M12.3783 7.17329H3.56934V2.62549H12.3783V7.17329ZM5.0375 5.72626H10.9102V4.07252H5.0375V5.72626Z" fill="#004098"/>
<path d="M5.87663 8.38232H3.7373V9.82935H5.87663V8.38232Z" fill="#004098"/>
<path d="M9.02263 8.38232H6.8833V9.82935H9.02263V8.38232Z" fill="#004098"/>
<path d="M12.1686 8.38232H10.0293V9.82935H12.1686V8.38232Z" fill="#004098"/>
<path d="M5.87663 11.4834H3.7373V12.9304H5.87663V11.4834Z" fill="#004098"/>
<path d="M9.02263 11.4834H6.8833V12.9304H9.02263V11.4834Z" fill="#004098"/>
<path d="M12.1686 11.4834H10.0293V12.9304H12.1686V11.4834Z" fill="#004098"/>
</svg>
